<svg width="15" height="15" viewBox="0 0 15 15" fill="none" xmlns="http://www.w3.org/2000/svg">
<path d="M13.75 3.125V5.625L7.5 8.125L1.25 5.625V3.125C1.25 2.95924 1.31585 2.80027 1.43306 2.68306C1.55027 2.56585 1.70924 2.5 1.875 2.5H13.125C13.2908 2.5 13.4497 2.56585 13.5669 2.68306C13.6842 2.80027 13.75 2.95924 13.75 3.125ZM1.25 6.97125V11.875C1.25 12.0408 1.31585 12.1997 1.43306 12.3169C1.55027 12.4342 1.70924 12.5 1.875 12.5H13.125C13.2908 12.5 13.4497 12.4342 13.5669 12.3169C13.6842 12.1997 13.75 12.0408 13.75 11.875V6.97125L7.5 9.47125L1.25 6.97125Z" fill="#C9E1F1"/>
</svg>
