<svg width="71" height="71" viewBox="0 0 71 71" fill="none" xmlns="http://www.w3.org/2000/svg">
<rect width="71" height="71" rx="35.5" fill="white"/>
<path d="M35.5 35.5C40.4015 35.5 44.375 31.5265 44.375 26.625C44.375 21.7235 40.4015 17.75 35.5 17.75C30.5985 17.75 26.625 21.7235 26.625 26.625C26.625 31.5265 30.5985 35.5 35.5 35.5Z" stroke="#1C274C" stroke-width="3.75"/>
<path d="M53.1584 59.1667C52.6877 50.6126 50.0687 44.375 35.4995 44.375C20.9307 44.375 18.3116 50.6126 17.8408 59.1667" stroke="#1C274C" stroke-width="3.75" stroke-linecap="round"/>
<path d="M20.7087 9.87438C25.06 7.35728 30.112 5.91666 35.5003 5.91666C51.8386 5.91666 65.0837 19.1616 65.0837 35.5C65.0837 51.8383 51.8386 65.0833 35.5003 65.0833C19.1619 65.0833 5.91699 51.8383 5.91699 35.5C5.91699 30.1117 7.35761 25.0597 9.87471 20.7083" stroke="#1C274C" stroke-width="3.75" stroke-linecap="round"/>
</svg>
