<svg width="81" height="81" viewBox="0 0 81 81" fill="none" xmlns="http://www.w3.org/2000/svg">
<circle cx="40.5" cy="40.5" r="40.5" fill="#D9D9D9"/>
<path d="M40.5 40.5C45.4015 40.5 49.375 36.5265 49.375 31.625C49.375 26.7235 45.4015 22.75 40.5 22.75C35.5985 22.75 31.625 26.7235 31.625 31.625C31.625 36.5265 35.5985 40.5 40.5 40.5Z" stroke="#1C274C" stroke-width="3.75"/>
<path d="M58.1584 64.1667C57.6877 55.6126 55.0687 49.375 40.4995 49.375C25.9307 49.375 23.3116 55.6126 22.8408 64.1667" stroke="#1C274C" stroke-width="3.75" stroke-linecap="round"/>
<path d="M25.7087 14.8744C30.06 12.3573 35.112 10.9167 40.5003 10.9167C56.8386 10.9167 70.0837 24.1616 70.0837 40.5C70.0837 56.8383 56.8386 70.0833 40.5003 70.0833C24.1619 70.0833 10.917 56.8383 10.917 40.5C10.917 35.1117 12.3576 30.0597 14.8747 25.7083" stroke="#1C274C" stroke-width="3.75" stroke-linecap="round"/>
</svg>
