<svg width="54" height="54" viewBox="0 0 54 54" fill="none" xmlns="http://www.w3.org/2000/svg">
<path fill-rule="evenodd" clip-rule="evenodd" d="M26.3443 3.44732C24.7018 2.37771 22.6755 2.06409 20.8632 2.35051C19.0531 2.63662 17.1523 3.5784 16.0333 5.38751C15.5997 6.08852 15.323 6.85454 15.2008 7.66726C13.4395 7.54931 11.6569 8.08344 10.3173 9.20068C8.96074 10.332 8.09417 12.0247 8.09417 14.0779C8.09417 14.7513 8.18664 15.4421 8.37018 16.1472C7.7017 16.2887 7.05818 16.5357 6.45597 16.8756C4.46719 17.9984 3.06985 20.0399 2.51804 22.2489C1.95608 24.4985 2.22553 27.1051 3.82617 29.338C4.63702 30.4693 5.73532 31.4305 7.11517 32.1863C6.77369 32.6432 6.48515 33.136 6.25074 33.6521C5.2931 35.7604 5.22099 38.2585 5.95257 40.455C6.69453 42.6827 8.31951 44.746 10.8815 45.7321C12.5512 46.375 14.4588 46.4996 16.5499 46.0685C16.6455 47.1361 16.9368 48.1063 17.4371 48.9548C18.5085 50.7715 20.3031 51.628 22.0622 51.7381C23.7427 51.8431 25.5955 51.2505 27 50.0531C28.4044 51.2505 30.2573 51.8431 31.9378 51.7381C33.6969 51.628 35.4915 50.7715 36.563 48.9548C37.0631 48.1063 37.3545 47.1361 37.4501 46.0685C39.541 46.4996 41.4488 46.375 43.1185 45.7321C45.6804 44.746 47.3053 42.6827 48.0474 40.455C48.7791 38.2585 48.7069 35.7604 47.7493 33.6521C47.5148 33.136 47.2264 32.6432 46.8848 32.1863C48.2647 31.4305 49.363 30.4693 50.1739 29.338C51.7745 27.1051 52.0438 24.4985 51.482 22.2489C50.9301 20.0399 49.5328 17.9984 47.5441 16.8756C46.9417 16.5357 46.2982 16.2887 45.6298 16.1472C45.8134 15.4421 45.9058 14.7513 45.9058 14.0779C45.9058 12.0247 45.0394 10.332 43.6826 9.20068C42.343 8.08344 40.5605 7.54931 38.7992 7.66726C38.677 6.85454 38.4003 6.08852 37.9667 5.38751C36.8476 3.5784 34.947 2.63662 33.1366 2.35051C31.3245 2.06409 29.2981 2.37771 27.6556 3.44732C26.9687 3.89468 27.0313 3.89468 26.3443 3.44732ZM29.2574 45.1166V39.4398C29.2601 38.3611 29.5049 36.7778 30.1363 35.5496C30.7289 34.3962 31.4878 33.8103 32.6434 33.8103C33.8902 33.8103 34.9009 32.7989 34.9009 31.5511C34.9009 30.3035 33.8902 29.2919 32.6434 29.2919C31.3204 29.2919 30.1986 29.61 29.2574 30.1262V28.1439C29.2601 27.0653 29.5049 25.4822 30.1363 24.2537C30.7289 23.1003 31.4878 22.5144 32.6434 22.5144C33.8902 22.5144 34.9009 21.503 34.9009 20.2553C34.9009 19.0076 33.8902 17.9961 32.6434 17.9961C31.3204 17.9961 30.1986 18.314 29.2574 18.8303V8.94447C29.2612 8.05169 29.626 7.55503 30.1183 7.23438C30.6981 6.85679 31.5639 6.67627 32.4324 6.81354C33.3029 6.95113 33.8713 7.35084 34.1278 7.7657C34.3357 8.10176 34.5883 8.84903 33.9547 10.3287C33.5284 11.3241 33.8679 12.4822 34.7641 13.0894C35.6602 13.6965 36.8606 13.5819 37.6259 12.8161C38.4532 11.9882 39.9517 11.9707 40.7923 12.6718C41.1289 12.9524 41.391 13.3777 41.391 14.0779C41.391 14.837 41.0733 16.0792 39.8362 17.8126C39.2029 18.7001 39.2933 19.9137 40.0513 20.6973C40.8094 21.4808 42.0185 21.6105 42.9253 21.0055C43.8977 20.3567 44.6773 20.4449 45.3258 20.811C46.0883 21.2414 46.8072 22.165 47.1019 23.3449C47.3866 24.4841 47.2327 25.6896 46.5052 26.7044C45.7798 27.7164 44.2721 28.8272 41.3021 29.3227C40.2037 29.5058 39.4029 30.4632 39.4159 31.5774C39.4288 32.6916 40.2516 33.6301 41.3539 33.7876C42.4827 33.9489 43.2157 34.5897 43.6392 35.5217C44.0923 36.5198 44.1614 37.834 43.7643 39.0262C43.3775 40.1872 42.604 41.0893 41.4976 41.515C40.387 41.9425 38.5648 42.032 35.8351 40.7902C35.0462 40.4314 34.1219 40.5563 33.4561 41.1111C32.7904 41.6662 32.5008 42.5536 32.7109 43.3949C32.9897 44.5111 33.4503 47.1163 31.6561 47.2286C30.4164 47.306 29.2639 46.3624 29.2574 45.1166ZM24.7426 8.94447C24.7387 8.05169 24.374 7.55503 23.8817 7.23438C23.3019 6.85679 22.436 6.67627 21.5676 6.81354C20.6971 6.95113 20.1287 7.35084 19.8722 7.7657C19.6643 8.10176 19.4116 8.84903 20.0453 10.3287C20.4715 11.3241 20.132 12.4822 19.2359 13.0894C18.3399 13.6965 17.1393 13.5819 16.3741 12.8161C15.5469 11.9882 14.0482 11.9707 13.2076 12.6718C12.8711 12.9524 12.609 13.3777 12.609 14.0779C12.609 14.837 12.9266 16.0792 14.1638 17.8126C14.7972 18.7001 14.7066 19.9137 13.9486 20.6973C13.1905 21.4808 11.9814 21.6105 11.0746 21.0055C10.1022 20.3567 9.32265 20.4449 8.6742 20.811C7.91176 21.2414 7.19277 22.165 6.89807 23.3449C6.61349 24.4841 6.76732 25.6896 7.49463 26.7044C8.22019 27.7164 9.72785 28.8272 12.6979 29.3227C13.7962 29.5058 14.597 30.4632 14.5841 31.5774C14.5712 32.6916 13.7483 33.6301 12.6461 33.7876C11.5173 33.9489 10.7842 34.5897 10.3609 35.5217C9.90762 36.5198 9.83864 37.834 10.2357 39.0262C10.6225 40.1872 11.396 41.0893 12.5023 41.515C13.613 41.9425 15.4353 42.032 18.1649 40.7902C18.9537 40.4314 19.8782 40.5563 20.5439 41.1111C21.2097 41.6662 21.4992 42.5536 21.289 43.3949C21.0102 44.5111 20.5498 47.1163 22.3438 47.2286C23.5836 47.306 24.736 46.3624 24.7426 45.1166V45.1062V39.4407C24.7399 38.362 24.4953 36.7783 23.8637 35.5496C23.2711 34.3962 22.5121 33.8103 21.3565 33.8103C20.1097 33.8103 19.099 32.7989 19.099 31.5511C19.099 30.3035 20.1097 29.2919 21.3565 29.2919C22.6795 29.2919 23.8014 29.61 24.7426 30.1262V28.1448C24.7399 27.0662 24.4953 25.4824 23.8637 24.2537C23.2711 23.1003 22.5121 22.5144 21.3565 22.5144C20.1097 22.5144 19.099 21.503 19.099 20.2553C19.099 19.0076 20.1097 17.9961 21.3565 17.9961C22.6795 17.9961 23.8014 18.314 24.7426 18.8303V8.94447Z" fill="white"/>
</svg>
