<svg width="46" height="46" viewBox="0 0 46 46" fill="none" xmlns="http://www.w3.org/2000/svg">
<path fill-rule="evenodd" clip-rule="evenodd" d="M30.7298 2H14.7702C11.3645 2.01882 8.10576 3.38979 5.71091 5.81131C3.31606 8.23287 1.98126 11.5066 2.0002 14.9123V30.5872C1.98126 33.9929 3.31606 37.2666 5.71091 39.6881C8.10576 42.1096 11.3645 43.4808 14.7702 43.4995H30.7298C34.1354 43.4808 37.394 42.1096 39.7889 39.6881C42.184 37.2666 43.5185 33.9929 43.4998 30.5872V14.9123C43.5185 11.5066 42.184 8.23287 39.7889 5.81131C37.394 3.38979 34.1354 2.01882 30.7298 2Z" stroke="white" stroke-width="3.75" stroke-linecap="round" stroke-linejoin="round"/>
<path d="M10.8931 13.857C9.66529 13.857 8.66992 14.8524 8.66992 16.0802C8.66992 17.308 9.66529 18.3034 10.8931 18.3034V13.857ZM22.7501 18.3034C23.9778 18.3034 24.9732 17.308 24.9732 16.0802C24.9732 14.8524 23.9778 13.857 22.7501 13.857V18.3034ZM20.5269 16.0802C20.5269 17.308 21.5223 18.3034 22.7501 18.3034C23.9778 18.3034 24.9732 17.308 24.9732 16.0802H20.5269ZM24.9732 10.8927C24.9732 9.66492 23.9778 8.66956 22.7501 8.66956C21.5223 8.66956 20.5269 9.66492 20.5269 10.8927H24.9732ZM22.7501 13.857C21.5223 13.857 20.5269 14.8524 20.5269 16.0802C20.5269 17.308 21.5223 18.3034 22.7501 18.3034V13.857ZM33.1249 18.3034C34.3527 18.3034 35.3481 17.308 35.3481 16.0802C35.3481 14.8524 34.3527 13.857 33.1249 13.857V18.3034ZM33.1249 13.857C31.8971 13.857 30.9017 14.8524 30.9017 16.0802C30.9017 17.308 31.8971 18.3034 33.1249 18.3034V13.857ZM34.6071 18.3034C35.8348 18.3034 36.8302 17.308 36.8302 16.0802C36.8302 14.8524 35.8348 13.857 34.6071 13.857V18.3034ZM34.9441 17.3581C35.6499 16.3535 35.4077 14.9669 34.4031 14.2611C33.3982 13.5552 32.0119 13.7975 31.3058 14.8021L34.9441 17.3581ZM20.5968 26.5389C19.6607 27.3337 19.5463 28.7366 20.341 29.6725C21.1357 30.6086 22.5387 30.723 23.4745 29.9283L20.5968 26.5389ZM14.7455 31.347C13.7637 32.0842 13.5655 33.478 14.3029 34.4597C15.0402 35.4415 16.4338 35.6398 17.4156 34.9023L14.7455 31.347ZM23.5113 29.8847C24.4296 29.0698 24.5135 27.6648 23.6986 26.7464C22.884 25.8278 21.4787 25.7439 20.5604 26.5588L23.5113 29.8847ZM20.2868 29.5945C21.045 30.5603 22.4424 30.7286 23.4084 29.9707C24.3742 29.2124 24.5425 27.8151 23.7846 26.849L20.2868 29.5945ZM20.3369 21.1096C19.8403 19.9865 18.5275 19.479 17.4046 19.9755C16.2816 20.472 15.7739 21.7849 16.2705 22.9077L20.3369 21.1096ZM23.8196 26.9068C23.0868 25.9215 21.6942 25.717 20.7089 26.4497C19.7238 27.1825 19.519 28.5751 20.2518 29.5604L23.8196 26.9068ZM28.3679 36.5655C29.4496 37.1462 30.7974 36.7404 31.3784 35.6585C31.9591 34.5768 31.5533 33.229 30.4716 32.648L28.3679 36.5655ZM10.8931 18.3034H22.7501V13.857H10.8931V18.3034ZM24.9732 16.0802V10.8927H20.5269V16.0802H24.9732ZM22.7501 18.3034H33.1249V13.857H22.7501V18.3034ZM33.1249 18.3034H34.6071V13.857H33.1249V18.3034ZM31.3058 14.8021C28.249 19.1532 24.6504 23.0972 20.5968 26.5389L23.4745 29.9283C27.816 26.2422 31.6701 22.0182 34.9441 17.3581L31.3058 14.8021ZM17.4156 34.9023C18.9297 33.7652 21.1286 31.9985 23.5113 29.8847L20.5604 26.5588C18.2651 28.595 16.16 30.2846 14.7455 31.347L17.4156 34.9023ZM23.7846 26.849C22.4012 25.0868 21.243 23.1585 20.3369 21.1096L16.2705 22.9077C17.3261 25.2949 18.6754 27.5412 20.2868 29.5945L23.7846 26.849ZM20.2518 29.5604C22.4104 32.4627 25.1813 34.8543 28.3679 36.5655L30.4716 32.648C27.8598 31.2456 25.5889 29.2853 23.8196 26.9068L20.2518 29.5604Z" fill="white"/>
</svg>
