<svg width="49" height="49" viewBox="0 0 49 49" fill="none" xmlns="http://www.w3.org/2000/svg">
<path d="M26.542 18.375L30.6253 30.625L34.7087 18.375M20.417 30.625C18.5144 30.625 17.5631 30.625 16.8127 30.3143C15.8122 29.8998 15.0173 29.1048 14.6028 28.1044C14.292 27.3538 14.292 26.4026 14.292 24.5C14.292 22.5974 14.292 21.6462 14.6028 20.8956C15.0173 19.8952 15.8122 19.1003 16.8127 18.6858C17.5631 18.375 18.5144 18.375 20.417 18.375M14.7003 40.8333H34.3003C36.5872 40.8333 37.7307 40.8333 38.6042 40.3883C39.3724 39.9969 39.9972 39.3721 40.3886 38.6038C40.8337 37.7304 40.8337 36.5869 40.8337 34.3V14.7C40.8337 12.4131 40.8337 11.2697 40.3886 10.3962C39.9972 9.62787 39.3724 9.0032 38.6042 8.61173C37.7307 8.16667 36.5872 8.16667 34.3003 8.16667H14.7003C12.4135 8.16667 11.27 8.16667 10.3965 8.61173C9.62819 9.0032 9.00352 9.62787 8.61205 10.3962C8.16699 11.2697 8.16699 12.4131 8.16699 14.7V34.3C8.16699 36.5869 8.16699 37.7304 8.61205 38.6038C9.00352 39.3721 9.62819 39.9969 10.3965 40.3883C11.27 40.8333 12.4134 40.8333 14.7003 40.8333Z" stroke="white" stroke-width="5" stroke-linecap="round" stroke-linejoin="round"/>
</svg>
