<svg width="56" height="43" viewBox="0 0 56 43" fill="none" xmlns="http://www.w3.org/2000/svg">
<path d="M17.6829 26.3443C16.1069 26.4192 14.5976 27.0024 13.3808 28.0068C12.164 29.0111 11.3051 30.3825 10.9329 31.9157C10.77 32.5629 10.05 32.8414 9.42429 32.7429C8.74286 32.6357 8.39571 31.7357 8.65286 30.9643C9.56571 28.1743 11.4257 26.0357 13.8557 24.8786C12.7863 24.02 12.01 22.8503 11.6343 21.5314C11.2586 20.2124 11.302 18.8092 11.7585 17.516C12.215 16.2228 13.062 15.1033 14.1825 14.3124C15.3029 13.5216 16.6414 13.0984 18.0129 13.1014C21.6729 13.1014 24.6429 16.0757 24.6429 19.7271C24.6429 21.75 23.73 23.5629 22.2986 24.7843C24.8014 25.9029 26.7043 28.0671 27.7286 30.8571C28.0114 31.6286 27.8271 32.3957 27.1843 32.7429C27.0054 32.8074 26.815 32.8339 26.6253 32.8206C26.4356 32.8074 26.2508 32.7547 26.0826 32.666C25.9144 32.5772 25.7665 32.4544 25.6485 32.3053C25.5305 32.1562 25.4449 31.9841 25.3971 31.8C24.54 28.5086 21.8829 26.4557 18.5186 26.3357C18.2404 26.356 17.9613 26.3589 17.6829 26.3443ZM52.0371 34.2V27.9343C52.0371 26.9743 52.92 26.2114 53.9443 26.2114C54.1748 26.2039 54.4044 26.243 54.6194 26.3263C54.8345 26.4097 55.0305 26.5355 55.1957 26.6964C55.361 26.8572 55.4921 27.0498 55.5812 27.2625C55.6703 27.4752 55.7156 27.7037 55.7143 27.9343V35.7386C55.7143 37.4435 55.037 39.0787 53.8314 40.2843C52.6258 41.4898 50.9907 42.1671 49.2857 42.1671H7.97571C3.57857 42.1671 0 38.91 0 34.8814V6.43714C0 4.73218 0.677294 3.09705 1.88288 1.89146C3.08848 0.685865 4.72361 0.00857146 6.42857 0.00857145L47.7343 0C52.1357 0 55.7143 3.25714 55.7143 7.29L55.7057 19.8043C55.6757 20.7343 54.9343 21.4029 53.9443 21.4029C52.9457 21.4029 52.0714 20.7343 52.0371 19.7957L52.0243 7.29C52.0243 5.17286 50.0957 3.69429 47.7386 3.69429H7.97143C6.83479 3.69429 5.7447 4.14581 4.94097 4.94954C4.13724 5.75327 3.68571 6.84336 3.68571 7.98V34.8857C3.68571 36.9986 5.61429 38.49 7.97143 38.49H47.7471C48.8838 38.49 49.9739 38.0385 50.7776 37.2347C51.5813 36.431 52.0329 35.3409 52.0329 34.2043L52.0371 34.2ZM18.0171 15.9986C17.0592 16.0445 16.1557 16.4574 15.494 17.1516C14.8322 17.8458 14.4631 18.7681 14.4631 19.7271C14.4631 20.6862 14.8322 21.6085 15.494 22.3027C16.1557 22.9969 17.0592 23.4098 18.0171 23.4557C18.9751 23.4098 19.8786 22.9969 20.5403 22.3027C21.202 21.6085 21.5712 20.6862 21.5712 19.7271C21.5712 18.7681 21.202 17.8458 20.5403 17.1516C19.8786 16.4574 18.9751 16.0445 18.0171 15.9986ZM43.8171 32.5929H34.0714C32.9271 32.5929 31.9714 31.8643 31.9714 30.9214C31.9714 29.9786 32.9271 29.2543 34.0714 29.2543H43.8086C44.9571 29.2543 45.9086 29.9786 45.9086 30.9257C45.9086 31.8686 44.9529 32.5929 43.8086 32.5929H43.8171ZM43.8171 16.4357H34.0714C32.9271 16.4357 31.9714 15.7114 31.9714 14.7686C31.9714 13.8257 32.9271 13.1014 34.0714 13.1014H43.8086C44.9571 13.1014 45.9086 13.8257 45.9086 14.7729C45.9086 15.7157 44.9529 16.4357 43.8086 16.4357H43.8171ZM43.8171 23.85H34.0714C32.9271 23.85 31.9714 23.13 31.9714 22.1829C31.9714 21.24 32.9271 20.5157 34.0714 20.5157H43.8086C44.9529 20.5157 45.9086 21.24 45.9086 22.1871C45.9086 23.13 44.9571 23.85 43.8086 23.85H43.8171Z" fill="white"/>
</svg>
