<svg width="60" height="60" viewBox="0 0 60 60" fill="none" xmlns="http://www.w3.org/2000/svg">
<path d="M47.5 25V15C47.5 13.6193 46.3807 12.5 45 12.5H25.0877C24.3299 12.5 23.6128 12.1561 23.1383 11.565L20.6256 8.43495C20.151 7.84388 19.434 7.5 18.676 7.5H7.5C6.1193 7.5 5 8.6193 5 10V37.5C5 38.8807 6.1193 40 7.5 40H12.5" stroke="white" stroke-width="3"/>
<path d="M12.5 50V22.5C12.5 21.1193 13.6193 20 15 20H26.176C26.934 20 27.651 20.3439 28.1255 20.9349L30.6382 24.0651C31.1127 24.6561 31.8297 25 32.5877 25H52.5C53.8807 25 55 26.1193 55 27.5V50C55 51.3807 53.8807 52.5 52.5 52.5H15C13.6193 52.5 12.5 51.3807 12.5 50Z" stroke="white" stroke-width="3"/>
</svg>
