<svg width="60" height="60" viewBox="0 0 60 60" fill="none" xmlns="http://www.w3.org/2000/svg">
<path d="M47.25 22.8562L54.6562 21.6937" stroke="white" stroke-width="3"/>
<path d="M44.9346 16.0406L49.5658 13.3125" stroke="white" stroke-width="3"/>
<path d="M40.209 10.9969L43.3215 4.22812" stroke="white" stroke-width="3"/>
<path d="M31.3598 10.0219L31.3223 4.64999" stroke="white" stroke-width="3"/>
<path d="M22.7717 11.3344L20.2686 4.22812" stroke="white" stroke-width="3"/>
<path d="M16.866 15.9656L12.1504 13.3969" stroke="white" stroke-width="3"/>
<path d="M14.7939 22.4719L7.52832 21.2438" stroke="white" stroke-width="3"/>
<path d="M24.5812 42.6281C24.5812 37.7906 21.5906 33.7312 19.9781 30.7312C19.0823 29.0654 18.6121 27.204 18.6094 25.3125C18.6094 18.9469 24.4312 13.7812 30.7969 13.7812" stroke="white" stroke-width="3"/>
<path d="M37.0125 42.6281C37.0125 37.7906 40.0031 33.7312 41.6156 30.7312C42.5115 29.0654 42.9817 27.204 42.9844 25.3125C42.9844 18.9469 37.1625 13.7812 30.7969 13.7812" stroke="white" stroke-width="3"/>
<path d="M37.9127 42.3656H24.1408C23.0432 42.3656 22.1533 43.2554 22.1533 44.3531V44.3625C22.1533 45.4601 23.0432 46.35 24.1408 46.35H37.9127C39.0104 46.35 39.9002 45.4601 39.9002 44.3625V44.3531C39.9002 43.2554 39.0104 42.3656 37.9127 42.3656Z" stroke="white" stroke-width="3"/>
<path d="M36.8246 46.3406H25.2277C24.1301 46.3406 23.2402 47.2305 23.2402 48.3281V48.3375C23.2402 49.4352 24.1301 50.325 25.2277 50.325H36.8246C37.9223 50.325 38.8121 49.4352 38.8121 48.3375V48.3281C38.8121 47.2305 37.9223 46.3406 36.8246 46.3406Z" stroke="white" stroke-width="3"/>
<path d="M34.0498 50.325V51.1125C34.0827 51.5289 34.029 51.9477 33.8922 52.3423C33.7554 52.737 33.5384 53.0991 33.2548 53.4059C32.9713 53.7127 32.6274 53.9575 32.2447 54.1249C31.862 54.2923 31.4488 54.3787 31.0311 54.3787C30.6133 54.3787 30.2001 54.2923 29.8174 54.1249C29.4347 53.9575 29.0908 53.7127 28.8073 53.4059C28.5237 53.0991 28.3067 52.737 28.1699 52.3423C28.0331 51.9477 27.9795 51.5289 28.0123 51.1125V50.325" stroke="white" stroke-width="3"/>
<path d="M23.0342 24.6094C23.081 23.6864 23.3093 22.7818 23.706 21.9471C24.1027 21.1125 24.66 20.3642 25.3462 19.7452C26.0323 19.1261 26.8337 18.6483 27.7046 18.3392C28.5755 18.0301 29.4988 17.8958 30.4217 17.9438" stroke="white" stroke-width="3"/>
</svg>
