<svg width="15" height="15" viewBox="0 0 15 15" fill="none" xmlns="http://www.w3.org/2000/svg">
<path d="M10.3476 8.06637L10.0629 8.34937C10.0629 8.34937 9.38631 9.02218 7.53944 7.18575C5.69257 5.34938 6.36919 4.6766 6.36919 4.6766L6.54844 4.49836C6.99006 4.05927 7.03169 3.35432 6.64637 2.83967L5.85829 1.78692C5.38142 1.14995 4.45997 1.0658 3.9134 1.60927L2.93241 2.5847C2.66139 2.85417 2.47978 3.20349 2.50181 3.591C2.55815 4.58239 3.00669 6.71544 5.5096 9.20412C8.16381 11.8432 10.6542 11.9481 11.6727 11.8532C11.9948 11.8232 12.2749 11.6591 12.5007 11.4346L13.3886 10.5519C13.9879 9.95593 13.8189 8.93431 13.0521 8.5175L11.858 7.86837C11.3545 7.59469 10.7411 7.67506 10.3476 8.06637Z" fill="#C9E1F1"/>
</svg>
