<svg width="60" height="60" viewBox="0 0 60 60" fill="none" xmlns="http://www.w3.org/2000/svg">
<path d="M10 30H7.5V20C7.5 17.2386 9.73857 15 12.5 15H22.5M10 30V45C10 47.7615 12.2386 50 15 50H45C47.7615 50 50 47.7615 50 45V30M10 30H25M22.5 15V12.5C22.5 9.73857 24.7386 7.5 27.5 7.5H32.5C35.2615 7.5 37.5 9.73857 37.5 12.5V15M22.5 15H37.5M50 30H52.5V20C52.5 17.2386 50.2615 15 47.5 15H37.5M50 30H35M25 30V25H35V30M25 30V35H35V30" stroke="white" stroke-width="4" stroke-linecap="round" stroke-linejoin="round"/>
</svg>
